<svg width="512" height="512" viewBox="0 0 512 512" fill="none" xmlns="http://www.w3.org/2000/svg">
  <title>Squallz app icon</title>
  <defs>
    <linearGradient id="squallz-bg" x1="52" y1="44" x2="460" y2="468" gradientUnits="userSpaceOnUse">
      <stop offset="0" stop-color="#20C7BE"/>
      <stop offset="0.5" stop-color="#0F9FAE"/>
      <stop offset="1" stop-color="#2E86C8"/>
    </linearGradient>
    <linearGradient id="squallz-core" x1="164" y1="150" x2="348" y2="364" gradientUnits="userSpaceOnUse">
      <stop offset="0" stop-color="#F9FFFF"/>
      <stop offset="1" stop-color="#D7F4FA"/>
    </linearGradient>
    <filter id="squallz-shadow" x="108" y="110" width="296" height="300" color-interpolation-filters="sRGB" filterUnits="userSpaceOnUse">
      <feDropShadow dx="0" dy="16" stdDeviation="14" flood-color="#062F3D" flood-opacity="0.24"/>
    </filter>
  </defs>

  <rect x="32" y="32" width="448" height="448" rx="112" fill="url(#squallz-bg)"/>

  <g stroke="#F4FFFE" stroke-width="34" stroke-linecap="round" stroke-linejoin="round" opacity="0.94">
    <path d="M204 116L256 168L308 116"/>
    <path d="M204 396L256 344L308 396"/>
    <path d="M116 204L168 256L116 308"/>
    <path d="M396 204L344 256L396 308"/>
  </g>

  <g filter="url(#squallz-shadow)">
    <rect x="166" y="162" width="180" height="188" rx="40" fill="url(#squallz-core)"/>
    <rect x="166" y="162" width="180" height="188" rx="40" stroke="#FFFFFF" stroke-width="8" opacity="0.62"/>
    <path d="M211 220H275" stroke="#159FB1" stroke-width="15" stroke-linecap="round" opacity="0.68"/>
    <path d="M211 256H275" stroke="#159FB1" stroke-width="15" stroke-linecap="round" opacity="0.48"/>
    <path d="M211 292H275" stroke="#159FB1" stroke-width="15" stroke-linecap="round" opacity="0.68"/>
    <path d="M302 216V296" stroke="#0F83A8" stroke-width="9" stroke-linecap="round" stroke-dasharray="1 19" opacity="0.72"/>
  </g>
</svg>
